<svg xmlns="http://www.w3.org/2000/svg" viewBox="0 0 31.38 19.39"><title>OS</title><path class="a" d="M29.9,9.9a9.59,9.59,0,0,0-4.14-2,13.5,13.5,0,0,1-3.41-1.14,1.49,1.49,0,0,1-.74-1.3,1.62,1.62,0,0,1,.6-1.31,2.53,2.53,0,0,1,1.65-.5,8.26,8.26,0,0,1,5,1.85L31,2.47A10.05,10.05,0,0,0,27.76.64,11.51,11.51,0,0,0,24,0a7.72,7.72,0,0,0-4.79,1.45,4.59,4.59,0,0,0-1.6,2.18,10.06,10.06,0,0,0-.77-0.85A9.63,9.63,0,0,0,9.84,0a9.63,9.63,0,0,0-7,2.78A9.26,9.26,0,0,0,0,9.68a9.26,9.26,0,0,0,2.84,6.91,9.63,9.63,0,0,0,7,2.78,9.64,9.64,0,0,0,7-2.78l0.1-.11a11.38,11.38,0,0,0,7.57,2.91,7.54,7.54,0,0,0,5-1.57,5.06,5.06,0,0,0,1.89-4.09A4.87,4.87,0,0,0,29.9,9.9ZM13.81,14a5.15,5.15,0,0,1-4,1.76A5.15,5.15,0,0,1,5.9,14,6.08,6.08,0,0,1,4.29,9.7,6.13,6.13,0,0,1,5.9,5.42a5.14,5.14,0,0,1,4-1.77,5.14,5.14,0,0,1,4,1.77A6.13,6.13,0,0,1,15.42,9.7,6.08,6.08,0,0,1,13.81,14ZM26.4,15.19a2.94,2.94,0,0,1-1.81.5q-2.53,0-5.5-2.57a9.84,9.84,0,0,0,.57-3.06,14.68,14.68,0,0,0,3.93,1.44,9.14,9.14,0,0,1,2.76,1,1.57,1.57,0,0,1,.7,1.34A1.59,1.59,0,0,1,26.4,15.19Z" transform="translate(0 0)"/></svg>